PathFileType	4	(X/Y/Z)	c:/Users/goper/Files/vsCode/490R/osim_files/C04/C04_Fast_02.trc
DataRate	CameraRate	NumFrames	NumMarkers	Units                	OrigDataRate	OrigDataStartFrame	OrigNumFrames
250.00	250.00	11	36	mm	250.0	1474	2947
                Frame#	Time	LPSIS			LASIS			LTH1			LTH2			LTH3			LTH4			LLFE			LMFE			LSH1			LSH2			LSH3			LSH4			LLMAL			LMMAL			LCAL			LMTP5			LTOE			LMTP1			RPSIS			RASIS			RTH1			RTH2			RTH3			RTH4			RLFE			RMFE			RSH1			RSH2			RSH3			RSH4			RLMAL			RMMAL			RCAL			RMTP1			RTOE			RMTP5		
		X1	Y1	Z1	X2	Y2	Z2	X3	Y3	Z3	X4	Y4	Z4	X5	Y5	Z5	X6	Y6	Z6	X7	Y7	Z7	X8	Y8	Z8	X9	Y9	Z9	X10	Y10	Z10	X11	Y11	Z11	X12	Y12	Z12	X13	Y13	Z13	X14	Y14	Z14	X15	Y15	Z15	X16	Y16	Z16	X17	Y17	Z17	X18	Y18	Z18	X19	Y19	Z19	X20	Y20	Z20	X21	Y21	Z21	X22	Y22	Z22	X23	Y23	Z23	X24	Y24	Z24	X25	Y25	Z25	X26	Y26	Z26	X27	Y27	Z27	X28	Y28	Z28	X29	Y29	Z29	X30	Y30	Z30	X31	Y31	Z31	X32	Y32	Z32	X33	Y33	Z33	X34	Y34	Z34	X35	Y35	Z35	X36	Y36	Z36

1474	5.89200	-1564.08765	972.62903	217.95734	0.00000	0.00000	0.00000	0.00000	0.00000	0.00000	0.00000	0.00000	0.00000	-1743.03027	723.55316	352.49667	-1784.15454	671.99011	342.68744	-1817.76294	474.25153	323.10519	-1831.40637	460.61105	209.50703	-1718.73535	419.27173	320.05072	-1691.34009	381.63028	316.14594	0.00000	0.00000	0.00000	0.00000	0.00000	0.00000	-1590.14575	158.11880	298.59619	-1615.14661	169.33466	212.95325	-1525.96375	167.08144	236.47929	-1675.96594	47.08138	332.12225	0.00000	0.00000	0.00000	0.00000	0.00000	0.00000	-1569.45752	978.78241	142.94847	0.00000	0.00000	0.00000	-1646.93347	724.86127	6.73407	-1647.26929	664.86469	22.09867	-1706.96411	735.51129	16.43816	-1724.94104	673.53918	36.11368	-1691.12488	450.62659	82.30225	-1676.56995	453.59818	190.13672	-1609.45410	324.58017	63.58708	-1616.02625	283.57938	64.81170	0.00000	0.00000	0.00000	-1662.99109	268.20972	84.06467	-1596.07275	74.70091	110.14861	-1556.25659	106.07755	203.73746	-1530.85706	47.00799	152.05556	0.00000	0.00000	0.00000	-1759.35742	39.73374	175.37634	-1732.33728	11.40007	111.27555
1475	5.89600	-1569.04578	972.77881	218.24408	0.00000	0.00000	0.00000	0.00000	0.00000	0.00000	0.00000	0.00000	0.00000	-1752.94238	723.85529	352.77206	-1791.11060	673.12390	342.70465	-1825.68030	475.58279	323.02518	-1839.51038	462.03021	209.48557	-1727.01489	418.39276	319.45224	-1698.36096	380.66254	315.54712	0.00000	0.00000	0.00000	0.00000	0.00000	0.00000	-1605.22241	153.86101	298.83029	-1630.66370	165.62209	213.25011	-1540.90320	160.98332	236.70049	-1694.32190	45.14881	332.38971	-1737.56885	57.38116	288.79614	0.00000	0.00000	0.00000	-1574.31335	978.65918	143.19466	0.00000	0.00000	0.00000	-1649.80884	725.05011	6.86012	-1649.93726	664.97656	22.37077	-1709.94214	735.25671	16.39421	-1727.88782	673.08746	36.30379	-1692.48779	450.53189	82.15078	-1677.75854	453.47992	190.00969	-1610.12573	324.81268	63.58182	-1616.57544	283.51440	64.83105	0.00000	0.00000	0.00000	-1663.56006	270.52789	81.53992	-1596.17834	74.74384	110.28622	0.00000	0.00000	0.00000	-1530.91199	47.11428	152.12509	-1745.50842	2.20795	226.18611	-1759.44482	39.58400	175.41026	-1732.35669	11.36287	111.27355
1476	5.90000	-1573.99902	972.79987	218.52185	0.00000	0.00000	0.00000	0.00000	0.00000	0.00000	0.00000	0.00000	0.00000	-1759.31519	725.16809	352.78525	-1798.21301	674.19507	342.78937	-1833.56628	476.83463	322.85541	-1847.42419	463.42889	209.45389	-1736.00159	417.14471	319.74664	-1708.00098	378.82172	315.69580	0.00000	0.00000	0.00000	0.00000	0.00000	0.00000	-1620.78467	149.36244	299.00711	-1645.79614	161.95868	213.50047	-1556.18396	154.86902	236.87218	-1712.58777	43.23770	332.88113	0.00000	0.00000	0.00000	0.00000	0.00000	0.00000	-1579.59375	978.19666	143.51184	0.00000	0.00000	0.00000	-1652.96021	725.01721	7.12543	-1652.60571	665.04346	22.69034	-1713.03760	735.00653	16.35026	-1730.66040	672.71027	36.32087	-1693.94250	450.25470	82.24897	-1678.93506	453.38571	190.01730	-1611.03992	324.99536	63.64703	-1617.38330	283.60336	64.92372	0.00000	0.00000	0.00000	-1665.30688	270.55994	81.31102	-1596.27271	74.82880	110.43439	-1583.40930	94.04056	203.35515	-1530.94482	47.26774	152.17926	0.00000	0.00000	0.00000	-1759.52686	39.51921	175.40849	-1732.37329	11.32842	111.24726
1477	5.90400	-1579.06592	972.74310	218.80638	0.00000	0.00000	0.00000	0.00000	0.00000	0.00000	0.00000	0.00000	0.00000	-1765.52612	725.97058	353.06427	-1805.17249	675.16681	342.92578	-1841.19995	478.03317	322.70227	-1855.34399	464.76926	209.40405	-1745.61914	415.49164	320.66568	-1717.57349	376.86630	315.85666	0.00000	0.00000	0.00000	0.00000	0.00000	0.00000	-1636.47180	144.88203	299.10486	-1659.95007	158.71075	213.78464	-1571.51953	148.73711	237.10278	-1731.02869	41.47250	333.21420	-1773.80872	56.23951	289.51410	-1742.73877	35.42243	236.55515	-1583.75024	978.39667	143.81673	0.00000	0.00000	0.00000	-1656.04553	725.04871	7.42592	-1655.36389	665.09821	23.02625	0.00000	0.00000	0.00000	-1733.55273	672.29590	36.41801	-1695.17737	450.22568	81.96198	-1680.42847	453.21103	190.00377	-1611.92139	325.22174	63.70959	-1618.19568	283.62991	64.97633	0.00000	0.00000	0.00000	-1666.18567	270.63016	81.33469	-1596.29297	74.91390	110.54613	-1596.71521	88.00607	201.89912	-1530.97986	47.35989	152.21935	0.00000	0.00000	0.00000	-1759.66162	39.40832	175.43640	-1732.39697	11.29936	111.23821
1478	5.90800	-1584.02124	972.76099	219.09361	0.00000	0.00000	0.00000	0.00000	0.00000	0.00000	0.00000	0.00000	0.00000	-1772.18591	726.62561	353.27603	-1812.22656	676.03687	342.98459	-1848.79138	478.99121	322.55209	-1863.03625	465.97745	209.32161	-1754.47766	414.05719	320.94998	-1727.15735	374.77249	316.07095	0.00000	0.00000	0.00000	0.00000	0.00000	0.00000	-1651.90894	140.47653	299.44077	0.00000	0.00000	0.00000	-1586.85559	142.68047	237.27957	-1749.63733	39.74935	333.61896	0.00000	0.00000	0.00000	0.00000	0.00000	0.00000	-1589.68005	977.77734	144.38348	0.00000	0.00000	0.00000	-1659.13184	725.05359	7.74818	-1658.10388	665.09650	23.45104	0.00000	0.00000	0.00000	-1736.39905	671.79083	36.53920	-1696.61084	450.03952	82.09646	-1681.51147	453.15707	190.10294	-1612.74817	325.45724	63.76313	-1618.68286	283.58258	65.09183	0.00000	0.00000	0.00000	-1666.83447	270.66260	81.31664	-1598.31213	74.17414	112.13051	-1596.26611	88.31925	201.04359	-1531.04236	47.44884	152.28017	0.00000	0.00000	0.00000	-1759.70349	39.35063	175.44374	-1732.40283	11.28276	111.20444
1479	5.91200	-1588.90002	972.68011	219.47290	0.00000	0.00000	0.00000	0.00000	0.00000	0.00000	0.00000	0.00000	0.00000	-1778.86084	727.25952	353.46329	-1819.18982	676.92480	343.03940	-1856.07959	479.99405	322.46143	-1870.68176	467.06018	209.30789	-1763.96631	412.34186	321.30096	-1736.76440	372.62860	316.29321	0.00000	0.00000	0.00000	0.00000	0.00000	0.00000	-1667.43652	136.20076	299.70078	0.00000	0.00000	0.00000	-1602.52271	136.58278	237.55510	0.00000	0.00000	0.00000	-1810.24194	55.83942	290.40701	-1758.48083	42.34061	335.74078	-1594.65125	977.53461	144.73615	0.00000	0.00000	0.00000	-1662.10193	725.12292	8.01740	-1660.90234	665.14008	23.87012	0.00000	0.00000	0.00000	-1739.32800	671.24567	36.70194	-1698.01562	449.88403	82.08473	-1682.85449	453.00687	190.15936	-1613.64758	325.66113	63.84967	-1619.51025	283.57394	65.19328	0.00000	0.00000	0.00000	-1666.22229	270.71423	81.61598	-1598.37085	74.25616	112.25137	-1596.30859	88.32059	201.21848	-1531.09045	47.53558	152.35216	0.00000	0.00000	0.00000	-1759.79443	39.26274	175.47314	-1732.44958	11.22172	111.23583
1480	5.91600	-1593.89917	972.41510	219.89984	0.00000	0.00000	0.00000	0.00000	0.00000	0.00000	0.00000	0.00000	0.00000	-1785.46313	727.69757	353.66077	-1826.07324	677.69208	343.15552	-1863.38513	480.87003	322.38037	-1878.11230	468.05414	209.31590	-1773.03027	410.56314	321.61224	-1746.19482	370.43042	316.51981	0.00000	0.00000	0.00000	0.00000	0.00000	0.00000	-1683.41272	131.76714	299.93378	0.00000	0.00000	0.00000	-1618.51318	130.42674	237.78026	-1776.87524	41.18055	336.27783	-1828.45483	55.73843	290.87411	0.00000	0.00000	0.00000	-1599.32520	977.34729	145.11781	0.00000	0.00000	0.00000	-1665.31519	725.02576	8.42816	-1663.63000	665.11133	24.29288	0.00000	0.00000	0.00000	-1742.19971	670.71558	36.71416	-1699.26245	449.79147	81.98008	-1684.08679	452.92325	190.36790	-1614.61987	325.81680	64.00865	-1620.40063	283.56937	65.25932	0.00000	0.00000	0.00000	-1667.11865	270.63788	81.82149	-1598.43079	74.35723	112.37495	-1596.33191	88.33899	201.41078	-1531.16321	47.63433	152.43767	0.00000	0.00000	0.00000	-1759.83594	39.15422	175.47845	-1732.44763	11.20991	111.21806
1481	5.92000	-1598.90515	972.24237	220.21371	0.00000	0.00000	0.00000	0.00000	0.00000	0.00000	0.00000	0.00000	0.00000	-1792.12622	728.16364	353.83005	-1833.01526	678.31415	343.13904	-1870.65454	481.49060	322.22791	-1885.41626	468.95383	209.26582	-1782.11182	408.67316	321.86343	-1754.81921	368.42432	316.74860	0.00000	0.00000	0.00000	0.00000	0.00000	0.00000	-1699.38989	127.48730	300.19998	0.00000	0.00000	0.00000	-1634.64673	124.27942	238.06860	-1795.59302	40.04246	336.77289	-1846.58313	55.09746	289.70441	0.00000	0.00000	0.00000	-1604.11841	977.08539	145.48454	0.00000	0.00000	0.00000	-1668.46985	724.97931	8.82660	-1666.43994	665.14563	24.73993	0.00000	0.00000	0.00000	-1745.06897	670.15045	36.78505	-1700.72388	449.54993	82.13777	-1685.75977	452.67249	190.45259	-1615.39795	326.04306	64.17636	-1620.95227	283.42682	65.46700	0.00000	0.00000	0.00000	-1669.01440	270.60873	81.75489	-1598.54321	74.41563	112.53773	-1596.39282	88.38888	201.60318	-1531.23779	47.73192	152.53728	0.00000	0.00000	0.00000	-1759.89880	39.07508	175.52116	-1732.49036	11.13685	111.20940
1482	5.92400	-1604.08496	971.95325	220.59138	0.00000	0.00000	0.00000	0.00000	0.00000	0.00000	0.00000	0.00000	0.00000	-1798.81995	728.60791	353.97073	-1839.94421	678.88879	343.23282	-1877.53442	482.13278	322.21838	-1892.59045	469.70901	209.25844	-1791.02051	406.80185	322.14145	-1765.63049	365.70145	316.92429	0.00000	0.00000	0.00000	0.00000	0.00000	0.00000	-1715.44006	123.24992	300.56992	0.00000	0.00000	0.00000	-1651.81885	117.97834	238.17834	-1814.27954	39.19220	337.32492	-1864.66455	55.29751	290.36948	0.00000	0.00000	0.00000	-1608.79419	976.80133	145.87616	0.00000	0.00000	0.00000	-1671.49646	724.93201	9.20766	-1669.12341	665.07965	25.17678	0.00000	0.00000	0.00000	-1747.95508	669.56702	36.82197	-1702.23499	449.28146	82.13096	-1687.31250	452.55078	190.62828	-1616.43628	326.20731	64.37655	-1621.81079	283.35950	65.66256	0.00000	0.00000	0.00000	-1668.54150	270.59012	82.14175	-1598.62280	74.48537	112.64392	-1596.52771	88.32143	201.83481	-1531.28650	47.84959	152.61804	0.00000	0.00000	0.00000	-1759.93799	38.95472	175.52016	-1732.50366	11.06812	111.19654
1483	5.92800	-1609.03235	971.70715	221.00383	0.00000	0.00000	0.00000	0.00000	0.00000	0.00000	0.00000	0.00000	0.00000	-1805.33704	728.92932	354.17581	-1846.74243	679.41144	343.26993	-1884.72156	482.49219	322.11917	-1899.71851	470.43542	209.24225	-1799.87915	404.80899	322.40091	-1775.15845	363.30188	317.06232	0.00000	0.00000	0.00000	0.00000	0.00000	0.00000	-1731.86206	119.07664	300.82077	0.00000	0.00000	0.00000	-1668.28247	112.02126	238.51193	-1832.69104	38.78289	337.96661	-1882.86975	55.60392	290.72684	0.00000	0.00000	0.00000	-1613.76074	976.40771	146.30650	0.00000	0.00000	0.00000	-1674.60229	724.92352	9.55859	-1671.91101	665.07239	25.60109	0.00000	0.00000	0.00000	-1750.93054	668.94141	36.85911	-1703.68567	449.09763	82.13932	-1689.22656	452.32819	190.81660	-1617.49841	326.29126	64.56519	-1622.70740	283.34183	65.82922	0.00000	0.00000	0.00000	-1669.32751	270.52594	82.27638	-1598.75745	74.54371	112.80655	-1596.60950	88.31540	202.01796	-1531.39392	47.95938	152.73378	0.00000	0.00000	0.00000	-1760.02441	38.82751	175.56706	-1732.49023	11.01379	111.17599
1484	5.93200	-1613.97253	971.36713	221.39819	0.00000	0.00000	0.00000	0.00000	0.00000	0.00000	0.00000	0.00000	0.00000	-1811.79272	729.08093	354.31732	-1853.63159	679.81342	343.08005	-1891.49890	482.81290	322.11551	-1906.74365	470.94843	209.21098	-1808.66711	402.75479	322.62347	-1784.51953	360.88953	317.28262	0.00000	0.00000	0.00000	0.00000	0.00000	0.00000	-1748.26624	115.04408	301.12784	-1772.92798	132.39876	217.03893	-1684.89246	106.18373	238.92143	-1851.57239	38.24822	338.40594	-1900.91931	56.37157	291.24426	0.00000	0.00000	0.00000	-1618.45703	976.01105	146.70111	0.00000	0.00000	0.00000	-1677.74548	724.79266	9.96643	-1674.71533	665.02460	25.99526	0.00000	0.00000	0.00000	-1753.75012	668.25031	36.77231	-1705.24512	448.76001	82.31316	-1690.75781	452.30960	191.03790	-1618.46631	326.46396	64.77640	-1623.43311	283.26248	66.04886	0.00000	0.00000	0.00000	-1670.17212	270.44360	82.41003	-1598.89233	74.57535	112.91409	-1596.77039	88.27608	202.28459	-1531.47302	48.09673	152.82759	0.00000	0.00000	0.00000	-1760.06592	38.72056	175.58592	-1732.51428	10.93988	111.14412
